<svg xmlns:svg="http://www.w3.org/2000/svg" xmlns="http://www.w3.org/2000/svg" version="1.1" width="15000" height="15000">
<rect x="95.000000" y="95.000000" width="120.000000" height="80.000000" fill="steelblue" stroke="MistyRose" stroke-width="1" />
<rect x="230.000000" y="95.000000" width="120.000000" height="80.000000" fill="steelblue" stroke="MistyRose" stroke-width="1" />
<rect x="365.000000" y="95.000000" width="120.000000" height="80.000000" fill="steelblue" stroke="MistyRose" stroke-width="1" />
<rect x="500.000000" y="95.000000" width="120.000000" height="80.000000" fill="steelblue" stroke="MistyRose" stroke-width="1" />
<rect x="635.000000" y="95.000000" width="120.000000" height="80.000000" fill="steelblue" stroke="MistyRose" stroke-width="1" />
<rect x="770.000000" y="95.000000" width="120.000000" height="80.000000" fill="steelblue" stroke="MistyRose" stroke-width="1" />
<rect x="905.000000" y="95.000000" width="120.000000" height="80.000000" fill="steelblue" stroke="MistyRose" stroke-width="1" />
<rect x="1040.000000" y="95.000000" width="120.000000" height="80.000000" fill="steelblue" stroke="MistyRose" stroke-width="1" />
<rect x="1175.000000" y="95.000000" width="120.000000" height="80.000000" fill="steelblue" stroke="MistyRose" stroke-width="1" />
<rect x="1310.000000" y="95.000000" width="120.000000" height="80.000000" fill="steelblue" stroke="MistyRose" stroke-width="1" />
<rect x="95.000000" y="190.000000" width="120.000000" height="80.000000" fill="steelblue" stroke="MistyRose" stroke-width="1" />
<rect x="230.000000" y="190.000000" width="120.000000" height="80.000000" fill="steelblue" stroke="MistyRose" stroke-width="1" />
<rect x="365.000000" y="190.000000" width="120.000000" height="80.000000" fill="steelblue" stroke="MistyRose" stroke-width="1" />
<rect x="500.000000" y="190.000000" width="120.000000" height="80.000000" fill="steelblue" stroke="MistyRose" stroke-width="1" />
<rect x="635.000000" y="190.000000" width="120.000000" height="80.000000" fill="steelblue" stroke="MistyRose" stroke-width="1" />
<rect x="770.000000" y="190.000000" width="120.000000" height="80.000000" fill="steelblue" stroke="MistyRose" stroke-width="1" />
<rect x="905.000000" y="190.000000" width="120.000000" height="80.000000" fill="steelblue" stroke="MistyRose" stroke-width="1" />
<rect x="1040.000000" y="190.000000" width="120.000000" height="80.000000" fill="steelblue" stroke="MistyRose" stroke-width="1" />
<rect x="1175.000000" y="190.000000" width="120.000000" height="80.000000" fill="steelblue" stroke="MistyRose" stroke-width="1" />
<rect x="1310.000000" y="190.000000" width="120.000000" height="80.000000" fill="steelblue" stroke="MistyRose" stroke-width="1" />
<rect x="95.000000" y="285.000000" width="120.000000" height="80.000000" fill="steelblue" stroke="MistyRose" stroke-width="1" />
<rect x="230.000000" y="285.000000" width="120.000000" height="80.000000" fill="steelblue" stroke="MistyRose" stroke-width="1" />
<rect x="365.000000" y="285.000000" width="120.000000" height="80.000000" fill="steelblue" stroke="MistyRose" stroke-width="1" />
<rect x="500.000000" y="285.000000" width="120.000000" height="80.000000" fill="steelblue" stroke="MistyRose" stroke-width="1" />
<rect x="635.000000" y="285.000000" width="120.000000" height="80.000000" fill="steelblue" stroke="MistyRose" stroke-width="1" />
<rect x="770.000000" y="285.000000" width="120.000000" height="80.000000" fill="steelblue" stroke="MistyRose" stroke-width="1" />
<rect x="905.000000" y="285.000000" width="120.000000" height="80.000000" fill="steelblue" stroke="MistyRose" stroke-width="1" />
<rect x="1040.000000" y="285.000000" width="120.000000" height="80.000000" fill="steelblue" stroke="MistyRose" stroke-width="1" />
<rect x="1175.000000" y="285.000000" width="120.000000" height="80.000000" fill="steelblue" stroke="MistyRose" stroke-width="1" />
<rect x="1310.000000" y="285.000000" width="120.000000" height="80.000000" fill="steelblue" stroke="MistyRose" stroke-width="1" />
<rect x="95.000000" y="380.000000" width="120.000000" height="80.000000" fill="steelblue" stroke="MistyRose" stroke-width="1" />
<rect x="230.000000" y="380.000000" width="120.000000" height="80.000000" fill="steelblue" stroke="MistyRose" stroke-width="1" />
<rect x="365.000000" y="380.000000" width="120.000000" height="80.000000" fill="steelblue" stroke="MistyRose" stroke-width="1" />
<rect x="500.000000" y="380.000000" width="120.000000" height="80.000000" fill="steelblue" stroke="MistyRose" stroke-width="1" />
<rect x="635.000000" y="380.000000" width="120.000000" height="80.000000" fill="steelblue" stroke="MistyRose" stroke-width="1" />
<rect x="770.000000" y="380.000000" width="120.000000" height="80.000000" fill="steelblue" stroke="MistyRose" stroke-width="1" />
<rect x="905.000000" y="380.000000" width="120.000000" height="80.000000" fill="steelblue" stroke="MistyRose" stroke-width="1" />
<rect x="1040.000000" y="380.000000" width="120.000000" height="80.000000" fill="steelblue" stroke="MistyRose" stroke-width="1" />
<rect x="1175.000000" y="380.000000" width="120.000000" height="80.000000" fill="steelblue" stroke="MistyRose" stroke-width="1" />
<rect x="1310.000000" y="380.000000" width="120.000000" height="80.000000" fill="steelblue" stroke="MistyRose" stroke-width="1" />
<rect x="95.000000" y="475.000000" width="120.000000" height="80.000000" fill="steelblue" stroke="MistyRose" stroke-width="1" />
<rect x="230.000000" y="475.000000" width="120.000000" height="80.000000" fill="steelblue" stroke="MistyRose" stroke-width="1" />
<rect x="365.000000" y="475.000000" width="120.000000" height="80.000000" fill="steelblue" stroke="MistyRose" stroke-width="1" />
<rect x="500.000000" y="475.000000" width="120.000000" height="80.000000" fill="steelblue" stroke="MistyRose" stroke-width="1" />
<rect x="635.000000" y="475.000000" width="120.000000" height="80.000000" fill="steelblue" stroke="MistyRose" stroke-width="1" />
<rect x="770.000000" y="475.000000" width="120.000000" height="80.000000" fill="steelblue" stroke="MistyRose" stroke-width="1" />
<rect x="905.000000" y="475.000000" width="120.000000" height="80.000000" fill="steelblue" stroke="MistyRose" stroke-width="1" />
<rect x="1040.000000" y="475.000000" width="120.000000" height="80.000000" fill="steelblue" stroke="MistyRose" stroke-width="1" />
<rect x="1175.000000" y="475.000000" width="120.000000" height="80.000000" fill="steelblue" stroke="MistyRose" stroke-width="1" />
<rect x="1310.000000" y="475.000000" width="120.000000" height="80.000000" fill="steelblue" stroke="MistyRose" stroke-width="1" />
<rect x="95.000000" y="570.000000" width="120.000000" height="80.000000" fill="steelblue" stroke="MistyRose" stroke-width="1" />
<rect x="230.000000" y="570.000000" width="120.000000" height="80.000000" fill="steelblue" stroke="MistyRose" stroke-width="1" />
<rect x="365.000000" y="570.000000" width="120.000000" height="80.000000" fill="steelblue" stroke="MistyRose" stroke-width="1" />
<rect x="500.000000" y="570.000000" width="120.000000" height="80.000000" fill="steelblue" stroke="MistyRose" stroke-width="1" />
<rect x="635.000000" y="570.000000" width="120.000000" height="80.000000" fill="steelblue" stroke="MistyRose" stroke-width="1" />
<rect x="770.000000" y="570.000000" width="120.000000" height="80.000000" fill="steelblue" stroke="MistyRose" stroke-width="1" />
<rect x="905.000000" y="570.000000" width="120.000000" height="80.000000" fill="steelblue" stroke="MistyRose" stroke-width="1" />
<rect x="1040.000000" y="570.000000" width="120.000000" height="80.000000" fill="steelblue" stroke="MistyRose" stroke-width="1" />
<rect x="1175.000000" y="570.000000" width="120.000000" height="80.000000" fill="steelblue" stroke="MistyRose" stroke-width="1" />
<rect x="1310.000000" y="570.000000" width="120.000000" height="80.000000" fill="steelblue" stroke="MistyRose" stroke-width="1" />
<rect x="95.000000" y="665.000000" width="120.000000" height="80.000000" fill="steelblue" stroke="MistyRose" stroke-width="1" />
<rect x="230.000000" y="665.000000" width="120.000000" height="80.000000" fill="steelblue" stroke="MistyRose" stroke-width="1" />
<rect x="365.000000" y="665.000000" width="120.000000" height="80.000000" fill="steelblue" stroke="MistyRose" stroke-width="1" />
<rect x="500.000000" y="665.000000" width="120.000000" height="80.000000" fill="steelblue" stroke="MistyRose" stroke-width="1" />
<rect x="635.000000" y="665.000000" width="120.000000" height="80.000000" fill="steelblue" stroke="MistyRose" stroke-width="1" />
<rect x="770.000000" y="665.000000" width="120.000000" height="80.000000" fill="steelblue" stroke="MistyRose" stroke-width="1" />
<rect x="905.000000" y="665.000000" width="120.000000" height="80.000000" fill="steelblue" stroke="MistyRose" stroke-width="1" />
<rect x="1040.000000" y="665.000000" width="120.000000" height="80.000000" fill="steelblue" stroke="MistyRose" stroke-width="1" />
<rect x="1175.000000" y="665.000000" width="120.000000" height="80.000000" fill="steelblue" stroke="MistyRose" stroke-width="1" />
<rect x="1310.000000" y="665.000000" width="120.000000" height="80.000000" fill="steelblue" stroke="MistyRose" stroke-width="1" />
<rect x="95.000000" y="760.000000" width="120.000000" height="80.000000" fill="steelblue" stroke="MistyRose" stroke-width="1" />
<rect x="230.000000" y="760.000000" width="120.000000" height="80.000000" fill="steelblue" stroke="MistyRose" stroke-width="1" />
<rect x="365.000000" y="760.000000" width="120.000000" height="80.000000" fill="steelblue" stroke="MistyRose" stroke-width="1" />
<rect x="500.000000" y="760.000000" width="120.000000" height="80.000000" fill="steelblue" stroke="MistyRose" stroke-width="1" />
<rect x="635.000000" y="760.000000" width="120.000000" height="80.000000" fill="steelblue" stroke="MistyRose" stroke-width="1" />
<rect x="770.000000" y="760.000000" width="120.000000" height="80.000000" fill="steelblue" stroke="MistyRose" stroke-width="1" />
<rect x="905.000000" y="760.000000" width="120.000000" height="80.000000" fill="steelblue" stroke="MistyRose" stroke-width="1" />
<rect x="1040.000000" y="760.000000" width="120.000000" height="80.000000" fill="steelblue" stroke="MistyRose" stroke-width="1" />
<rect x="1175.000000" y="760.000000" width="120.000000" height="80.000000" fill="steelblue" stroke="MistyRose" stroke-width="1" />
<rect x="1310.000000" y="760.000000" width="120.000000" height="80.000000" fill="steelblue" stroke="MistyRose" stroke-width="1" />
<rect x="95.000000" y="855.000000" width="120.000000" height="80.000000" fill="steelblue" stroke="MistyRose" stroke-width="1" />
<rect x="230.000000" y="855.000000" width="120.000000" height="80.000000" fill="steelblue" stroke="MistyRose" stroke-width="1" />
<rect x="365.000000" y="855.000000" width="120.000000" height="80.000000" fill="steelblue" stroke="MistyRose" stroke-width="1" />
<rect x="500.000000" y="855.000000" width="120.000000" height="80.000000" fill="steelblue" stroke="MistyRose" stroke-width="1" />
<rect x="635.000000" y="855.000000" width="120.000000" height="80.000000" fill="steelblue" stroke="MistyRose" stroke-width="1" />
<rect x="770.000000" y="855.000000" width="120.000000" height="80.000000" fill="steelblue" stroke="MistyRose" stroke-width="1" />
<rect x="905.000000" y="855.000000" width="120.000000" height="80.000000" fill="steelblue" stroke="MistyRose" stroke-width="1" />
<rect x="1040.000000" y="855.000000" width="120.000000" height="80.000000" fill="steelblue" stroke="MistyRose" stroke-width="1" />
<rect x="1175.000000" y="855.000000" width="120.000000" height="80.000000" fill="steelblue" stroke="MistyRose" stroke-width="1" />
<rect x="1310.000000" y="855.000000" width="120.000000" height="80.000000" fill="steelblue" stroke="MistyRose" stroke-width="1" />
<rect x="95.000000" y="950.000000" width="120.000000" height="80.000000" fill="steelblue" stroke="MistyRose" stroke-width="1" />
<rect x="230.000000" y="950.000000" width="120.000000" height="80.000000" fill="steelblue" stroke="MistyRose" stroke-width="1" />
<rect x="365.000000" y="950.000000" width="120.000000" height="80.000000" fill="steelblue" stroke="MistyRose" stroke-width="1" />
<rect x="500.000000" y="950.000000" width="120.000000" height="80.000000" fill="steelblue" stroke="MistyRose" stroke-width="1" />
<rect x="635.000000" y="950.000000" width="120.000000" height="80.000000" fill="steelblue" stroke="MistyRose" stroke-width="1" />
<rect x="770.000000" y="950.000000" width="120.000000" height="80.000000" fill="steelblue" stroke="MistyRose" stroke-width="1" />
<rect x="905.000000" y="950.000000" width="120.000000" height="80.000000" fill="steelblue" stroke="MistyRose" stroke-width="1" />
<rect x="1040.000000" y="950.000000" width="120.000000" height="80.000000" fill="steelblue" stroke="MistyRose" stroke-width="1" />
<rect x="1175.000000" y="950.000000" width="120.000000" height="80.000000" fill="steelblue" stroke="MistyRose" stroke-width="1" />
<rect x="1310.000000" y="950.000000" width="120.000000" height="80.000000" fill="steelblue" stroke="MistyRose" stroke-width="1" />
<line x1="770.000000" y1="180.000000" x2="770.000000" y2="200.000000" stroke="red" stroke-width="2" />
<line x1="760.000000" y1="190.000000" x2="780.000000" y2="190.000000" stroke="red" stroke-width="2" />
<line x1="905.000000" y1="180.000000" x2="905.000000" y2="200.000000" stroke="red" stroke-width="2" />
<line x1="895.000000" y1="190.000000" x2="915.000000" y2="190.000000" stroke="red" stroke-width="2" />
<line x1="905.000000" y1="655.000000" x2="905.000000" y2="675.000000" stroke="red" stroke-width="2" />
<line x1="895.000000" y1="665.000000" x2="915.000000" y2="665.000000" stroke="red" stroke-width="2" />
<line x1="1175.000000" y1="560.000000" x2="1175.000000" y2="580.000000" stroke="red" stroke-width="2" />
<line x1="1165.000000" y1="570.000000" x2="1185.000000" y2="570.000000" stroke="red" stroke-width="2" />
<line x1="95.000000" y1="85.000000" x2="95.000000" y2="105.000000" stroke="red" stroke-width="2" />
<line x1="85.000000" y1="95.000000" x2="105.000000" y2="95.000000" stroke="red" stroke-width="2" />
<line x1="500.000000" y1="85.000000" x2="500.000000" y2="105.000000" stroke="red" stroke-width="2" />
<line x1="490.000000" y1="95.000000" x2="510.000000" y2="95.000000" stroke="red" stroke-width="2" />
<line x1="1040.000000" y1="750.000000" x2="1040.000000" y2="770.000000" stroke="red" stroke-width="2" />
<line x1="1030.000000" y1="760.000000" x2="1050.000000" y2="760.000000" stroke="red" stroke-width="2" />
<line x1="770.000000" y1="560.000000" x2="770.000000" y2="580.000000" stroke="red" stroke-width="2" />
<line x1="760.000000" y1="570.000000" x2="780.000000" y2="570.000000" stroke="red" stroke-width="2" />
<line x1="1310.000000" y1="750.000000" x2="1310.000000" y2="770.000000" stroke="red" stroke-width="2" />
<line x1="1300.000000" y1="760.000000" x2="1320.000000" y2="760.000000" stroke="red" stroke-width="2" />
<line x1="635.000000" y1="845.000000" x2="635.000000" y2="865.000000" stroke="red" stroke-width="2" />
<line x1="625.000000" y1="855.000000" x2="645.000000" y2="855.000000" stroke="red" stroke-width="2" />
<line x1="1175.000000" y1="275.000000" x2="1175.000000" y2="295.000000" stroke="red" stroke-width="2" />
<line x1="1165.000000" y1="285.000000" x2="1185.000000" y2="285.000000" stroke="red" stroke-width="2" />
<line x1="365.000000" y1="180.000000" x2="365.000000" y2="200.000000" stroke="red" stroke-width="2" />
<line x1="355.000000" y1="190.000000" x2="375.000000" y2="190.000000" stroke="red" stroke-width="2" />
<line x1="365.000000" y1="655.000000" x2="365.000000" y2="675.000000" stroke="red" stroke-width="2" />
<line x1="355.000000" y1="665.000000" x2="375.000000" y2="665.000000" stroke="red" stroke-width="2" />
<line x1="635.000000" y1="560.000000" x2="635.000000" y2="580.000000" stroke="red" stroke-width="2" />
<line x1="625.000000" y1="570.000000" x2="645.000000" y2="570.000000" stroke="red" stroke-width="2" />
<line x1="95.000000" y1="180.000000" x2="95.000000" y2="200.000000" stroke="red" stroke-width="2" />
<line x1="85.000000" y1="190.000000" x2="105.000000" y2="190.000000" stroke="red" stroke-width="2" />
<line x1="95.000000" y1="275.000000" x2="95.000000" y2="295.000000" stroke="red" stroke-width="2" />
<line x1="85.000000" y1="285.000000" x2="105.000000" y2="285.000000" stroke="red" stroke-width="2" />
<line x1="500.000000" y1="940.000000" x2="500.000000" y2="960.000000" stroke="red" stroke-width="2" />
<line x1="490.000000" y1="950.000000" x2="510.000000" y2="950.000000" stroke="red" stroke-width="2" />
<line x1="905.000000" y1="940.000000" x2="905.000000" y2="960.000000" stroke="red" stroke-width="2" />
<line x1="895.000000" y1="950.000000" x2="915.000000" y2="950.000000" stroke="red" stroke-width="2" />
<line x1="500.000000" y1="370.000000" x2="500.000000" y2="390.000000" stroke="red" stroke-width="2" />
<line x1="490.000000" y1="380.000000" x2="510.000000" y2="380.000000" stroke="red" stroke-width="2" />
<line x1="95.000000" y1="180.000000" x2="95.000000" y2="200.000000" stroke="red" stroke-width="2" />
<line x1="85.000000" y1="190.000000" x2="105.000000" y2="190.000000" stroke="red" stroke-width="2" />
<line x1="1310.000000" y1="275.000000" x2="1310.000000" y2="295.000000" stroke="red" stroke-width="2" />
<line x1="1300.000000" y1="285.000000" x2="1320.000000" y2="285.000000" stroke="red" stroke-width="2" />
<line x1="500.000000" y1="85.000000" x2="500.000000" y2="105.000000" stroke="red" stroke-width="2" />
<line x1="490.000000" y1="95.000000" x2="510.000000" y2="95.000000" stroke="red" stroke-width="2" />
<line x1="1310.000000" y1="180.000000" x2="1310.000000" y2="200.000000" stroke="red" stroke-width="2" />
<line x1="1300.000000" y1="190.000000" x2="1320.000000" y2="190.000000" stroke="red" stroke-width="2" />
<line x1="770.000000" y1="655.000000" x2="770.000000" y2="675.000000" stroke="red" stroke-width="2" />
<line x1="760.000000" y1="665.000000" x2="780.000000" y2="665.000000" stroke="red" stroke-width="2" />
<line x1="770.000000" y1="940.000000" x2="770.000000" y2="960.000000" stroke="red" stroke-width="2" />
<line x1="760.000000" y1="950.000000" x2="780.000000" y2="950.000000" stroke="red" stroke-width="2" />
<line x1="365.000000" y1="85.000000" x2="365.000000" y2="105.000000" stroke="red" stroke-width="2" />
<line x1="355.000000" y1="95.000000" x2="375.000000" y2="95.000000" stroke="red" stroke-width="2" />
<line x1="770.000000" y1="560.000000" x2="770.000000" y2="580.000000" stroke="red" stroke-width="2" />
<line x1="760.000000" y1="570.000000" x2="780.000000" y2="570.000000" stroke="red" stroke-width="2" />
</svg>
