<svg xmlns:svg="http://www.w3.org/2000/svg" xmlns="http://www.w3.org/2000/svg" version="1.1" width="15000" height="15000">
<rect x="95.000000" y="95.000000" width="120.000000" height="80.000000" fill="steelblue" stroke="MistyRose" stroke-width="1" />
<rect x="230.000000" y="95.000000" width="120.000000" height="80.000000" fill="steelblue" stroke="MistyRose" stroke-width="1" />
<rect x="365.000000" y="95.000000" width="120.000000" height="80.000000" fill="steelblue" stroke="MistyRose" stroke-width="1" />
<rect x="500.000000" y="95.000000" width="120.000000" height="80.000000" fill="steelblue" stroke="MistyRose" stroke-width="1" />
<rect x="635.000000" y="95.000000" width="120.000000" height="80.000000" fill="steelblue" stroke="MistyRose" stroke-width="1" />
<rect x="770.000000" y="95.000000" width="120.000000" height="80.000000" fill="steelblue" stroke="MistyRose" stroke-width="1" />
<rect x="905.000000" y="95.000000" width="120.000000" height="80.000000" fill="steelblue" stroke="MistyRose" stroke-width="1" />
<rect x="1040.000000" y="95.000000" width="120.000000" height="80.000000" fill="steelblue" stroke="MistyRose" stroke-width="1" />
<rect x="1175.000000" y="95.000000" width="120.000000" height="80.000000" fill="steelblue" stroke="MistyRose" stroke-width="1" />
<rect x="1310.000000" y="95.000000" width="120.000000" height="80.000000" fill="steelblue" stroke="MistyRose" stroke-width="1" />
<rect x="95.000000" y="190.000000" width="120.000000" height="80.000000" fill="steelblue" stroke="MistyRose" stroke-width="1" />
<rect x="230.000000" y="190.000000" width="120.000000" height="80.000000" fill="steelblue" stroke="MistyRose" stroke-width="1" />
<rect x="365.000000" y="190.000000" width="120.000000" height="80.000000" fill="steelblue" stroke="MistyRose" stroke-width="1" />
<rect x="500.000000" y="190.000000" width="120.000000" height="80.000000" fill="steelblue" stroke="MistyRose" stroke-width="1" />
<rect x="635.000000" y="190.000000" width="120.000000" height="80.000000" fill="steelblue" stroke="MistyRose" stroke-width="1" />
<rect x="770.000000" y="190.000000" width="120.000000" height="80.000000" fill="steelblue" stroke="MistyRose" stroke-width="1" />
<rect x="905.000000" y="190.000000" width="120.000000" height="80.000000" fill="steelblue" stroke="MistyRose" stroke-width="1" />
<rect x="1040.000000" y="190.000000" width="120.000000" height="80.000000" fill="steelblue" stroke="MistyRose" stroke-width="1" />
<rect x="1175.000000" y="190.000000" width="120.000000" height="80.000000" fill="steelblue" stroke="MistyRose" stroke-width="1" />
<rect x="1310.000000" y="190.000000" width="120.000000" height="80.000000" fill="steelblue" stroke="MistyRose" stroke-width="1" />
<rect x="95.000000" y="285.000000" width="120.000000" height="80.000000" fill="steelblue" stroke="MistyRose" stroke-width="1" />
<rect x="230.000000" y="285.000000" width="120.000000" height="80.000000" fill="steelblue" stroke="MistyRose" stroke-width="1" />
<rect x="365.000000" y="285.000000" width="120.000000" height="80.000000" fill="steelblue" stroke="MistyRose" stroke-width="1" />
<rect x="500.000000" y="285.000000" width="120.000000" height="80.000000" fill="steelblue" stroke="MistyRose" stroke-width="1" />
<rect x="635.000000" y="285.000000" width="120.000000" height="80.000000" fill="steelblue" stroke="MistyRose" stroke-width="1" />
<rect x="770.000000" y="285.000000" width="120.000000" height="80.000000" fill="steelblue" stroke="MistyRose" stroke-width="1" />
<rect x="905.000000" y="285.000000" width="120.000000" height="80.000000" fill="steelblue" stroke="MistyRose" stroke-width="1" />
<rect x="1040.000000" y="285.000000" width="120.000000" height="80.000000" fill="steelblue" stroke="MistyRose" stroke-width="1" />
<rect x="1175.000000" y="285.000000" width="120.000000" height="80.000000" fill="steelblue" stroke="MistyRose" stroke-width="1" />
<rect x="1310.000000" y="285.000000" width="120.000000" height="80.000000" fill="steelblue" stroke="MistyRose" stroke-width="1" />
<rect x="95.000000" y="380.000000" width="120.000000" height="80.000000" fill="steelblue" stroke="MistyRose" stroke-width="1" />
<rect x="230.000000" y="380.000000" width="120.000000" height="80.000000" fill="steelblue" stroke="MistyRose" stroke-width="1" />
<rect x="365.000000" y="380.000000" width="120.000000" height="80.000000" fill="steelblue" stroke="MistyRose" stroke-width="1" />
<rect x="500.000000" y="380.000000" width="120.000000" height="80.000000" fill="steelblue" stroke="MistyRose" stroke-width="1" />
<rect x="635.000000" y="380.000000" width="120.000000" height="80.000000" fill="steelblue" stroke="MistyRose" stroke-width="1" />
<rect x="770.000000" y="380.000000" width="120.000000" height="80.000000" fill="steelblue" stroke="MistyRose" stroke-width="1" />
<rect x="905.000000" y="380.000000" width="120.000000" height="80.000000" fill="steelblue" stroke="MistyRose" stroke-width="1" />
<rect x="1040.000000" y="380.000000" width="120.000000" height="80.000000" fill="steelblue" stroke="MistyRose" stroke-width="1" />
<rect x="1175.000000" y="380.000000" width="120.000000" height="80.000000" fill="steelblue" stroke="MistyRose" stroke-width="1" />
<rect x="1310.000000" y="380.000000" width="120.000000" height="80.000000" fill="steelblue" stroke="MistyRose" stroke-width="1" />
<rect x="95.000000" y="475.000000" width="120.000000" height="80.000000" fill="steelblue" stroke="MistyRose" stroke-width="1" />
<rect x="230.000000" y="475.000000" width="120.000000" height="80.000000" fill="steelblue" stroke="MistyRose" stroke-width="1" />
<rect x="365.000000" y="475.000000" width="120.000000" height="80.000000" fill="steelblue" stroke="MistyRose" stroke-width="1" />
<rect x="500.000000" y="475.000000" width="120.000000" height="80.000000" fill="steelblue" stroke="MistyRose" stroke-width="1" />
<rect x="635.000000" y="475.000000" width="120.000000" height="80.000000" fill="steelblue" stroke="MistyRose" stroke-width="1" />
<rect x="770.000000" y="475.000000" width="120.000000" height="80.000000" fill="steelblue" stroke="MistyRose" stroke-width="1" />
<rect x="905.000000" y="475.000000" width="120.000000" height="80.000000" fill="steelblue" stroke="MistyRose" stroke-width="1" />
<rect x="1040.000000" y="475.000000" width="120.000000" height="80.000000" fill="steelblue" stroke="MistyRose" stroke-width="1" />
<rect x="1175.000000" y="475.000000" width="120.000000" height="80.000000" fill="steelblue" stroke="MistyRose" stroke-width="1" />
<rect x="1310.000000" y="475.000000" width="120.000000" height="80.000000" fill="steelblue" stroke="MistyRose" stroke-width="1" />
<rect x="95.000000" y="570.000000" width="120.000000" height="80.000000" fill="steelblue" stroke="MistyRose" stroke-width="1" />
<rect x="230.000000" y="570.000000" width="120.000000" height="80.000000" fill="steelblue" stroke="MistyRose" stroke-width="1" />
<rect x="365.000000" y="570.000000" width="120.000000" height="80.000000" fill="steelblue" stroke="MistyRose" stroke-width="1" />
<rect x="500.000000" y="570.000000" width="120.000000" height="80.000000" fill="steelblue" stroke="MistyRose" stroke-width="1" />
<rect x="635.000000" y="570.000000" width="120.000000" height="80.000000" fill="steelblue" stroke="MistyRose" stroke-width="1" />
<rect x="770.000000" y="570.000000" width="120.000000" height="80.000000" fill="steelblue" stroke="MistyRose" stroke-width="1" />
<rect x="905.000000" y="570.000000" width="120.000000" height="80.000000" fill="steelblue" stroke="MistyRose" stroke-width="1" />
<rect x="1040.000000" y="570.000000" width="120.000000" height="80.000000" fill="steelblue" stroke="MistyRose" stroke-width="1" />
<rect x="1175.000000" y="570.000000" width="120.000000" height="80.000000" fill="steelblue" stroke="MistyRose" stroke-width="1" />
<rect x="1310.000000" y="570.000000" width="120.000000" height="80.000000" fill="steelblue" stroke="MistyRose" stroke-width="1" />
<rect x="95.000000" y="665.000000" width="120.000000" height="80.000000" fill="steelblue" stroke="MistyRose" stroke-width="1" />
<rect x="230.000000" y="665.000000" width="120.000000" height="80.000000" fill="steelblue" stroke="MistyRose" stroke-width="1" />
<rect x="365.000000" y="665.000000" width="120.000000" height="80.000000" fill="steelblue" stroke="MistyRose" stroke-width="1" />
<rect x="500.000000" y="665.000000" width="120.000000" height="80.000000" fill="steelblue" stroke="MistyRose" stroke-width="1" />
<rect x="635.000000" y="665.000000" width="120.000000" height="80.000000" fill="steelblue" stroke="MistyRose" stroke-width="1" />
<rect x="770.000000" y="665.000000" width="120.000000" height="80.000000" fill="steelblue" stroke="MistyRose" stroke-width="1" />
<rect x="905.000000" y="665.000000" width="120.000000" height="80.000000" fill="steelblue" stroke="MistyRose" stroke-width="1" />
<rect x="1040.000000" y="665.000000" width="120.000000" height="80.000000" fill="steelblue" stroke="MistyRose" stroke-width="1" />
<rect x="1175.000000" y="665.000000" width="120.000000" height="80.000000" fill="steelblue" stroke="MistyRose" stroke-width="1" />
<rect x="1310.000000" y="665.000000" width="120.000000" height="80.000000" fill="steelblue" stroke="MistyRose" stroke-width="1" />
<rect x="95.000000" y="760.000000" width="120.000000" height="80.000000" fill="steelblue" stroke="MistyRose" stroke-width="1" />
<rect x="230.000000" y="760.000000" width="120.000000" height="80.000000" fill="steelblue" stroke="MistyRose" stroke-width="1" />
<rect x="365.000000" y="760.000000" width="120.000000" height="80.000000" fill="steelblue" stroke="MistyRose" stroke-width="1" />
<rect x="500.000000" y="760.000000" width="120.000000" height="80.000000" fill="steelblue" stroke="MistyRose" stroke-width="1" />
<rect x="635.000000" y="760.000000" width="120.000000" height="80.000000" fill="steelblue" stroke="MistyRose" stroke-width="1" />
<rect x="770.000000" y="760.000000" width="120.000000" height="80.000000" fill="steelblue" stroke="MistyRose" stroke-width="1" />
<rect x="905.000000" y="760.000000" width="120.000000" height="80.000000" fill="steelblue" stroke="MistyRose" stroke-width="1" />
<rect x="1040.000000" y="760.000000" width="120.000000" height="80.000000" fill="steelblue" stroke="MistyRose" stroke-width="1" />
<rect x="1175.000000" y="760.000000" width="120.000000" height="80.000000" fill="steelblue" stroke="MistyRose" stroke-width="1" />
<rect x="1310.000000" y="760.000000" width="120.000000" height="80.000000" fill="steelblue" stroke="MistyRose" stroke-width="1" />
<rect x="95.000000" y="855.000000" width="120.000000" height="80.000000" fill="steelblue" stroke="MistyRose" stroke-width="1" />
<rect x="230.000000" y="855.000000" width="120.000000" height="80.000000" fill="steelblue" stroke="MistyRose" stroke-width="1" />
<rect x="365.000000" y="855.000000" width="120.000000" height="80.000000" fill="steelblue" stroke="MistyRose" stroke-width="1" />
<rect x="500.000000" y="855.000000" width="120.000000" height="80.000000" fill="steelblue" stroke="MistyRose" stroke-width="1" />
<rect x="635.000000" y="855.000000" width="120.000000" height="80.000000" fill="steelblue" stroke="MistyRose" stroke-width="1" />
<rect x="770.000000" y="855.000000" width="120.000000" height="80.000000" fill="steelblue" stroke="MistyRose" stroke-width="1" />
<rect x="905.000000" y="855.000000" width="120.000000" height="80.000000" fill="steelblue" stroke="MistyRose" stroke-width="1" />
<rect x="1040.000000" y="855.000000" width="120.000000" height="80.000000" fill="steelblue" stroke="MistyRose" stroke-width="1" />
<rect x="1175.000000" y="855.000000" width="120.000000" height="80.000000" fill="steelblue" stroke="MistyRose" stroke-width="1" />
<rect x="1310.000000" y="855.000000" width="120.000000" height="80.000000" fill="steelblue" stroke="MistyRose" stroke-width="1" />
<rect x="95.000000" y="950.000000" width="120.000000" height="80.000000" fill="steelblue" stroke="MistyRose" stroke-width="1" />
<rect x="230.000000" y="950.000000" width="120.000000" height="80.000000" fill="steelblue" stroke="MistyRose" stroke-width="1" />
<rect x="365.000000" y="950.000000" width="120.000000" height="80.000000" fill="steelblue" stroke="MistyRose" stroke-width="1" />
<rect x="500.000000" y="950.000000" width="120.000000" height="80.000000" fill="steelblue" stroke="MistyRose" stroke-width="1" />
<rect x="635.000000" y="950.000000" width="120.000000" height="80.000000" fill="steelblue" stroke="MistyRose" stroke-width="1" />
<rect x="770.000000" y="950.000000" width="120.000000" height="80.000000" fill="steelblue" stroke="MistyRose" stroke-width="1" />
<rect x="905.000000" y="950.000000" width="120.000000" height="80.000000" fill="steelblue" stroke="MistyRose" stroke-width="1" />
<rect x="1040.000000" y="950.000000" width="120.000000" height="80.000000" fill="steelblue" stroke="MistyRose" stroke-width="1" />
<rect x="1175.000000" y="950.000000" width="120.000000" height="80.000000" fill="steelblue" stroke="MistyRose" stroke-width="1" />
<rect x="1310.000000" y="950.000000" width="120.000000" height="80.000000" fill="steelblue" stroke="MistyRose" stroke-width="1" />
<text x="965.000000" y="420.000000" fill="black" font-size="14">Total: 2</text>
<text x="965.000000" y="370.000000" fill="blue" font-size="10">0</text>
<text x="965.000000" y="470.000000" fill="blue" font-size="10">1</text>
<text x="1030.000000" y="420.000000" fill="blue" font-size="10">1</text>
<text x="890.000000" y="420.000000" fill="blue" font-size="10">0</text>
<text x="1370.000000" y="990.000000" fill="black" font-size="14">Total: 1</text>
<text x="1370.000000" y="940.000000" fill="blue" font-size="10">1</text>
<text x="1370.000000" y="1040.000000" fill="blue" font-size="10">0</text>
<text x="1435.000000" y="990.000000" fill="blue" font-size="10">0</text>
<text x="1295.000000" y="990.000000" fill="blue" font-size="10">0</text>
<text x="965.000000" y="420.000000" fill="black" font-size="14">Total: 2</text>
<text x="965.000000" y="370.000000" fill="blue" font-size="10">0</text>
<text x="965.000000" y="470.000000" fill="blue" font-size="10">1</text>
<text x="1030.000000" y="420.000000" fill="blue" font-size="10">1</text>
<text x="890.000000" y="420.000000" fill="blue" font-size="10">0</text>
<text x="1370.000000" y="990.000000" fill="black" font-size="14">Total: 1</text>
<text x="1370.000000" y="940.000000" fill="blue" font-size="10">1</text>
<text x="1370.000000" y="1040.000000" fill="blue" font-size="10">0</text>
<text x="1435.000000" y="990.000000" fill="blue" font-size="10">0</text>
<text x="1295.000000" y="990.000000" fill="blue" font-size="10">0</text>
</svg>
