<svg xmlns:svg="http://www.w3.org/2000/svg" xmlns="http://www.w3.org/2000/svg" version="1.1" width="1500" height="1500">
<rect x="95.000000" y="95.000000" width="120.000000" height="80.000000" fill="steelblue" stroke="MistyRose" stroke-width="1" />
<rect x="230.000000" y="95.000000" width="120.000000" height="80.000000" fill="steelblue" stroke="MistyRose" stroke-width="1" />
<rect x="365.000000" y="95.000000" width="120.000000" height="80.000000" fill="steelblue" stroke="MistyRose" stroke-width="1" />
<rect x="500.000000" y="95.000000" width="120.000000" height="80.000000" fill="steelblue" stroke="MistyRose" stroke-width="1" />
<rect x="635.000000" y="95.000000" width="120.000000" height="80.000000" fill="steelblue" stroke="MistyRose" stroke-width="1" />
<rect x="770.000000" y="95.000000" width="120.000000" height="80.000000" fill="steelblue" stroke="MistyRose" stroke-width="1" />
<rect x="905.000000" y="95.000000" width="120.000000" height="80.000000" fill="steelblue" stroke="MistyRose" stroke-width="1" />
<rect x="1040.000000" y="95.000000" width="120.000000" height="80.000000" fill="steelblue" stroke="MistyRose" stroke-width="1" />
<rect x="1175.000000" y="95.000000" width="120.000000" height="80.000000" fill="steelblue" stroke="MistyRose" stroke-width="1" />
<rect x="1310.000000" y="95.000000" width="120.000000" height="80.000000" fill="steelblue" stroke="MistyRose" stroke-width="1" />
<rect x="95.000000" y="190.000000" width="120.000000" height="80.000000" fill="steelblue" stroke="MistyRose" stroke-width="1" />
<rect x="230.000000" y="190.000000" width="120.000000" height="80.000000" fill="steelblue" stroke="MistyRose" stroke-width="1" />
<rect x="365.000000" y="190.000000" width="120.000000" height="80.000000" fill="steelblue" stroke="MistyRose" stroke-width="1" />
<rect x="500.000000" y="190.000000" width="120.000000" height="80.000000" fill="steelblue" stroke="MistyRose" stroke-width="1" />
<rect x="635.000000" y="190.000000" width="120.000000" height="80.000000" fill="steelblue" stroke="MistyRose" stroke-width="1" />
<rect x="770.000000" y="190.000000" width="120.000000" height="80.000000" fill="steelblue" stroke="MistyRose" stroke-width="1" />
<rect x="905.000000" y="190.000000" width="120.000000" height="80.000000" fill="steelblue" stroke="MistyRose" stroke-width="1" />
<rect x="1040.000000" y="190.000000" width="120.000000" height="80.000000" fill="steelblue" stroke="MistyRose" stroke-width="1" />
<rect x="1175.000000" y="190.000000" width="120.000000" height="80.000000" fill="steelblue" stroke="MistyRose" stroke-width="1" />
<rect x="1310.000000" y="190.000000" width="120.000000" height="80.000000" fill="steelblue" stroke="MistyRose" stroke-width="1" />
<rect x="95.000000" y="285.000000" width="120.000000" height="80.000000" fill="steelblue" stroke="MistyRose" stroke-width="1" />
<rect x="230.000000" y="285.000000" width="120.000000" height="80.000000" fill="steelblue" stroke="MistyRose" stroke-width="1" />
<rect x="365.000000" y="285.000000" width="120.000000" height="80.000000" fill="steelblue" stroke="MistyRose" stroke-width="1" />
<rect x="500.000000" y="285.000000" width="120.000000" height="80.000000" fill="steelblue" stroke="MistyRose" stroke-width="1" />
<rect x="635.000000" y="285.000000" width="120.000000" height="80.000000" fill="steelblue" stroke="MistyRose" stroke-width="1" />
<rect x="770.000000" y="285.000000" width="120.000000" height="80.000000" fill="steelblue" stroke="MistyRose" stroke-width="1" />
<rect x="905.000000" y="285.000000" width="120.000000" height="80.000000" fill="steelblue" stroke="MistyRose" stroke-width="1" />
<rect x="1040.000000" y="285.000000" width="120.000000" height="80.000000" fill="steelblue" stroke="MistyRose" stroke-width="1" />
<rect x="1175.000000" y="285.000000" width="120.000000" height="80.000000" fill="steelblue" stroke="MistyRose" stroke-width="1" />
<rect x="1310.000000" y="285.000000" width="120.000000" height="80.000000" fill="steelblue" stroke="MistyRose" stroke-width="1" />
<rect x="95.000000" y="380.000000" width="120.000000" height="80.000000" fill="steelblue" stroke="MistyRose" stroke-width="1" />
<rect x="230.000000" y="380.000000" width="120.000000" height="80.000000" fill="steelblue" stroke="MistyRose" stroke-width="1" />
<rect x="365.000000" y="380.000000" width="120.000000" height="80.000000" fill="steelblue" stroke="MistyRose" stroke-width="1" />
<rect x="500.000000" y="380.000000" width="120.000000" height="80.000000" fill="steelblue" stroke="MistyRose" stroke-width="1" />
<rect x="635.000000" y="380.000000" width="120.000000" height="80.000000" fill="steelblue" stroke="MistyRose" stroke-width="1" />
<rect x="770.000000" y="380.000000" width="120.000000" height="80.000000" fill="steelblue" stroke="MistyRose" stroke-width="1" />
<rect x="905.000000" y="380.000000" width="120.000000" height="80.000000" fill="steelblue" stroke="MistyRose" stroke-width="1" />
<rect x="1040.000000" y="380.000000" width="120.000000" height="80.000000" fill="steelblue" stroke="MistyRose" stroke-width="1" />
<rect x="1175.000000" y="380.000000" width="120.000000" height="80.000000" fill="steelblue" stroke="MistyRose" stroke-width="1" />
<rect x="1310.000000" y="380.000000" width="120.000000" height="80.000000" fill="steelblue" stroke="MistyRose" stroke-width="1" />
<rect x="95.000000" y="475.000000" width="120.000000" height="80.000000" fill="steelblue" stroke="MistyRose" stroke-width="1" />
<rect x="230.000000" y="475.000000" width="120.000000" height="80.000000" fill="steelblue" stroke="MistyRose" stroke-width="1" />
<rect x="365.000000" y="475.000000" width="120.000000" height="80.000000" fill="steelblue" stroke="MistyRose" stroke-width="1" />
<rect x="500.000000" y="475.000000" width="120.000000" height="80.000000" fill="steelblue" stroke="MistyRose" stroke-width="1" />
<rect x="635.000000" y="475.000000" width="120.000000" height="80.000000" fill="steelblue" stroke="MistyRose" stroke-width="1" />
<rect x="770.000000" y="475.000000" width="120.000000" height="80.000000" fill="steelblue" stroke="MistyRose" stroke-width="1" />
<rect x="905.000000" y="475.000000" width="120.000000" height="80.000000" fill="steelblue" stroke="MistyRose" stroke-width="1" />
<rect x="1040.000000" y="475.000000" width="120.000000" height="80.000000" fill="steelblue" stroke="MistyRose" stroke-width="1" />
<rect x="1175.000000" y="475.000000" width="120.000000" height="80.000000" fill="steelblue" stroke="MistyRose" stroke-width="1" />
<rect x="1310.000000" y="475.000000" width="120.000000" height="80.000000" fill="steelblue" stroke="MistyRose" stroke-width="1" />
<rect x="95.000000" y="570.000000" width="120.000000" height="80.000000" fill="steelblue" stroke="MistyRose" stroke-width="1" />
<rect x="230.000000" y="570.000000" width="120.000000" height="80.000000" fill="steelblue" stroke="MistyRose" stroke-width="1" />
<rect x="365.000000" y="570.000000" width="120.000000" height="80.000000" fill="steelblue" stroke="MistyRose" stroke-width="1" />
<rect x="500.000000" y="570.000000" width="120.000000" height="80.000000" fill="steelblue" stroke="MistyRose" stroke-width="1" />
<rect x="635.000000" y="570.000000" width="120.000000" height="80.000000" fill="steelblue" stroke="MistyRose" stroke-width="1" />
<rect x="770.000000" y="570.000000" width="120.000000" height="80.000000" fill="steelblue" stroke="MistyRose" stroke-width="1" />
<rect x="905.000000" y="570.000000" width="120.000000" height="80.000000" fill="steelblue" stroke="MistyRose" stroke-width="1" />
<rect x="1040.000000" y="570.000000" width="120.000000" height="80.000000" fill="steelblue" stroke="MistyRose" stroke-width="1" />
<rect x="1175.000000" y="570.000000" width="120.000000" height="80.000000" fill="steelblue" stroke="MistyRose" stroke-width="1" />
<rect x="1310.000000" y="570.000000" width="120.000000" height="80.000000" fill="steelblue" stroke="MistyRose" stroke-width="1" />
<rect x="95.000000" y="665.000000" width="120.000000" height="80.000000" fill="steelblue" stroke="MistyRose" stroke-width="1" />
<rect x="230.000000" y="665.000000" width="120.000000" height="80.000000" fill="steelblue" stroke="MistyRose" stroke-width="1" />
<rect x="365.000000" y="665.000000" width="120.000000" height="80.000000" fill="steelblue" stroke="MistyRose" stroke-width="1" />
<rect x="500.000000" y="665.000000" width="120.000000" height="80.000000" fill="steelblue" stroke="MistyRose" stroke-width="1" />
<rect x="635.000000" y="665.000000" width="120.000000" height="80.000000" fill="steelblue" stroke="MistyRose" stroke-width="1" />
<rect x="770.000000" y="665.000000" width="120.000000" height="80.000000" fill="steelblue" stroke="MistyRose" stroke-width="1" />
<rect x="905.000000" y="665.000000" width="120.000000" height="80.000000" fill="steelblue" stroke="MistyRose" stroke-width="1" />
<rect x="1040.000000" y="665.000000" width="120.000000" height="80.000000" fill="steelblue" stroke="MistyRose" stroke-width="1" />
<rect x="1175.000000" y="665.000000" width="120.000000" height="80.000000" fill="steelblue" stroke="MistyRose" stroke-width="1" />
<rect x="1310.000000" y="665.000000" width="120.000000" height="80.000000" fill="steelblue" stroke="MistyRose" stroke-width="1" />
<rect x="95.000000" y="760.000000" width="120.000000" height="80.000000" fill="steelblue" stroke="MistyRose" stroke-width="1" />
<rect x="230.000000" y="760.000000" width="120.000000" height="80.000000" fill="steelblue" stroke="MistyRose" stroke-width="1" />
<rect x="365.000000" y="760.000000" width="120.000000" height="80.000000" fill="steelblue" stroke="MistyRose" stroke-width="1" />
<rect x="500.000000" y="760.000000" width="120.000000" height="80.000000" fill="steelblue" stroke="MistyRose" stroke-width="1" />
<rect x="635.000000" y="760.000000" width="120.000000" height="80.000000" fill="steelblue" stroke="MistyRose" stroke-width="1" />
<rect x="770.000000" y="760.000000" width="120.000000" height="80.000000" fill="steelblue" stroke="MistyRose" stroke-width="1" />
<rect x="905.000000" y="760.000000" width="120.000000" height="80.000000" fill="steelblue" stroke="MistyRose" stroke-width="1" />
<rect x="1040.000000" y="760.000000" width="120.000000" height="80.000000" fill="steelblue" stroke="MistyRose" stroke-width="1" />
<rect x="1175.000000" y="760.000000" width="120.000000" height="80.000000" fill="steelblue" stroke="MistyRose" stroke-width="1" />
<rect x="1310.000000" y="760.000000" width="120.000000" height="80.000000" fill="steelblue" stroke="MistyRose" stroke-width="1" />
<rect x="95.000000" y="855.000000" width="120.000000" height="80.000000" fill="steelblue" stroke="MistyRose" stroke-width="1" />
<rect x="230.000000" y="855.000000" width="120.000000" height="80.000000" fill="steelblue" stroke="MistyRose" stroke-width="1" />
<rect x="365.000000" y="855.000000" width="120.000000" height="80.000000" fill="steelblue" stroke="MistyRose" stroke-width="1" />
<rect x="500.000000" y="855.000000" width="120.000000" height="80.000000" fill="steelblue" stroke="MistyRose" stroke-width="1" />
<rect x="635.000000" y="855.000000" width="120.000000" height="80.000000" fill="steelblue" stroke="MistyRose" stroke-width="1" />
<rect x="770.000000" y="855.000000" width="120.000000" height="80.000000" fill="steelblue" stroke="MistyRose" stroke-width="1" />
<rect x="905.000000" y="855.000000" width="120.000000" height="80.000000" fill="steelblue" stroke="MistyRose" stroke-width="1" />
<rect x="1040.000000" y="855.000000" width="120.000000" height="80.000000" fill="steelblue" stroke="MistyRose" stroke-width="1" />
<rect x="1175.000000" y="855.000000" width="120.000000" height="80.000000" fill="steelblue" stroke="MistyRose" stroke-width="1" />
<rect x="1310.000000" y="855.000000" width="120.000000" height="80.000000" fill="steelblue" stroke="MistyRose" stroke-width="1" />
<rect x="95.000000" y="950.000000" width="120.000000" height="80.000000" fill="steelblue" stroke="MistyRose" stroke-width="1" />
<rect x="230.000000" y="950.000000" width="120.000000" height="80.000000" fill="steelblue" stroke="MistyRose" stroke-width="1" />
<rect x="365.000000" y="950.000000" width="120.000000" height="80.000000" fill="steelblue" stroke="MistyRose" stroke-width="1" />
<rect x="500.000000" y="950.000000" width="120.000000" height="80.000000" fill="steelblue" stroke="MistyRose" stroke-width="1" />
<rect x="635.000000" y="950.000000" width="120.000000" height="80.000000" fill="steelblue" stroke="MistyRose" stroke-width="1" />
<rect x="770.000000" y="950.000000" width="120.000000" height="80.000000" fill="steelblue" stroke="MistyRose" stroke-width="1" />
<rect x="905.000000" y="950.000000" width="120.000000" height="80.000000" fill="steelblue" stroke="MistyRose" stroke-width="1" />
<rect x="1040.000000" y="950.000000" width="120.000000" height="80.000000" fill="steelblue" stroke="MistyRose" stroke-width="1" />
<rect x="1175.000000" y="950.000000" width="120.000000" height="80.000000" fill="steelblue" stroke="MistyRose" stroke-width="1" />
<rect x="1310.000000" y="950.000000" width="120.000000" height="80.000000" fill="steelblue" stroke="MistyRose" stroke-width="1" />
<line x1="765.000000" y1="375.000000" x2="775.000000" y2="385.000000" stroke="red" stroke-width="2" />
<line x1="775.000000" y1="375.000000" x2="765.000000" y2="385.000000" stroke="red" stroke-width="2" />
<line x1="1035.000000" y1="660.000000" x2="1045.000000" y2="670.000000" stroke="red" stroke-width="2" />
<line x1="1045.000000" y1="660.000000" x2="1035.000000" y2="670.000000" stroke="red" stroke-width="2" />
<line x1="1035.000000" y1="565.000000" x2="1045.000000" y2="575.000000" stroke="red" stroke-width="2" />
<line x1="1045.000000" y1="565.000000" x2="1035.000000" y2="575.000000" stroke="red" stroke-width="2" />
<line x1="495.000000" y1="565.000000" x2="505.000000" y2="575.000000" stroke="red" stroke-width="2" />
<line x1="505.000000" y1="565.000000" x2="495.000000" y2="575.000000" stroke="red" stroke-width="2" />
<line x1="495.000000" y1="280.000000" x2="505.000000" y2="290.000000" stroke="red" stroke-width="2" />
<line x1="505.000000" y1="280.000000" x2="495.000000" y2="290.000000" stroke="red" stroke-width="2" />
</svg>
